<svg width="32" height="32" viewBox="0 0 32 32" fill="none" xmlns="http://www.w3.org/2000/svg">
<path d="M20.6666 7.33337H23.6666C23.9318 7.33337 24.1862 7.43873 24.3737 7.62627C24.5613 7.8138 24.6666 8.06816 24.6666 8.33337V26.3334C24.6666 26.5986 24.5613 26.8529 24.3737 27.0405C24.1862 27.228 23.9318 27.3334 23.6666 27.3334H7.66663C7.40141 27.3334 7.14706 27.228 6.95952 27.0405C6.77198 26.8529 6.66663 26.5986 6.66663 26.3334V8.33337C6.66663 8.06816 6.77198 7.8138 6.95952 7.62627C7.14706 7.43873 7.40141 7.33337 7.66663 7.33337H10.6666V5.33337H12.6666V7.33337H18.6666V5.33337H20.6666V7.33337ZM20.6666 9.33337V11.3334H18.6666V9.33337H12.6666V11.3334H10.6666V9.33337H8.66663V25.3334H22.6666V9.33337H20.6666ZM10.6666 13.3334H20.6666V15.3334H10.6666V13.3334ZM10.6666 17.3334H20.6666V19.3334H10.6666V17.3334Z" fill="#9AA7C1"/>
</svg>
