<svg width="16" height="11" viewBox="0 0 16 11" fill="none" xmlns="http://www.w3.org/2000/svg">
<path d="M0.232955 11H1.46591V6.44602H5.88068V5.35227H1.46591V1.91193H6.33807V0.818182H0.232955V11ZM8.30975 11H9.54271V7.02273H11.77C11.8595 7.02273 11.944 7.02273 12.0285 7.01776L14.1762 11H15.608L13.3062 6.79403C14.6038 6.35156 15.2103 5.29261 15.2103 3.94034C15.2103 2.14062 14.1365 0.818182 11.7501 0.818182H8.30975V11ZM9.54271 5.90909V1.91193H11.7103C13.3609 1.91193 13.9973 2.71733 13.9973 3.94034C13.9973 5.16335 13.3609 5.90909 11.7302 5.90909H9.54271Z" fill="#5A6987"/>
</svg>
