<svg width="48" height="48" viewBox="0 0 48 48" fill="none" xmlns="http://www.w3.org/2000/svg">
<rect width="48" height="48" rx="24" fill="#090F1B"/>
<path d="M4 24C4 12.9543 12.9543 4 24 4C35.0457 4 44 12.9543 44 24C44 35.0457 35.0457 44 24 44C12.9543 44 4 35.0457 4 24Z" fill="#090F1B"/>
<path d="M24.5 29.5495H29V22.783L23.75 18.7L18.5 22.783V29.5495H23V25.0495H24.5V29.5495ZM30.5 30.2995C30.5 30.4984 30.421 30.6892 30.2803 30.8299C30.1397 30.9705 29.9489 31.0495 29.75 31.0495H17.75C17.5511 31.0495 17.3603 30.9705 17.2197 30.8299C17.079 30.6892 17 30.4984 17 30.2995V22.417C16.9999 22.3027 17.026 22.1899 17.0761 22.0872C17.1263 21.9846 17.1993 21.8947 17.2895 21.8245L23.2895 17.158C23.4212 17.0556 23.5832 17 23.75 17C23.9168 17 24.0788 17.0556 24.2105 17.158L30.2105 21.8245C30.3007 21.8947 30.3737 21.9846 30.4239 22.0872C30.474 22.1899 30.5001 22.3027 30.5 22.417V30.2995Z" fill="white"/>
</svg>
