<svg width="24" height="24" viewBox="0 0 24 24" fill="none" xmlns="http://www.w3.org/2000/svg">
<path d="M19.6261 12.1497C19.6261 11.4942 19.5729 11.0158 19.4578 10.5198H11.9725V13.4784H16.3662C16.2777 14.2137 15.7993 15.321 14.7363 16.0651L14.7214 16.1641L17.0881 17.9976L17.2521 18.0139C18.758 16.6232 19.6261 14.5769 19.6261 12.1497Z" fill="#4285F4"/>
<path d="M11.9725 19.945C14.1251 19.945 15.9322 19.2363 17.2521 18.0139L14.7363 16.065C14.0631 16.5345 13.1595 16.8623 11.9725 16.8623C9.86424 16.8623 8.07487 15.4716 7.43701 13.5493L7.34351 13.5573L4.88256 15.4618L4.85038 15.5513C6.1614 18.1556 8.85435 19.945 11.9725 19.945Z" fill="#34A853"/>
<path d="M7.43701 13.5494C7.2687 13.0533 7.1713 12.5218 7.1713 11.9726C7.1713 11.4233 7.2687 10.8918 7.42815 10.3958L7.42369 10.2901L4.93191 8.35498L4.85038 8.39376C4.31005 9.47449 4 10.6881 4 11.9726C4 13.257 4.31005 14.4706 4.85038 15.5513L7.43701 13.5494Z" fill="#FBBC05"/>
<path d="M11.9725 7.08269C13.4696 7.08269 14.4794 7.72934 15.0552 8.26974L17.3052 6.07285C15.9234 4.7884 14.1251 4 11.9725 4C8.85435 4 6.1614 5.78937 4.85038 8.39371L7.42815 10.3957C8.07487 8.47347 9.86424 7.08269 11.9725 7.08269Z" fill="#EB4335"/>
</svg>
