<svg width="32" height="32" viewBox="0 0 32 32" fill="none" xmlns="http://www.w3.org/2000/svg">
<path d="M7.66663 6.66663H25.6666C25.9318 6.66663 26.1862 6.77198 26.3737 6.95952C26.5613 7.14706 26.6666 7.40141 26.6666 7.66663V23.6666C26.6666 23.9318 26.5613 24.1862 26.3737 24.3737C26.1862 24.5613 25.9318 24.6666 25.6666 24.6666H7.66663C7.40141 24.6666 7.14706 24.5613 6.95952 24.3737C6.77198 24.1862 6.66663 23.9318 6.66663 23.6666V7.66663C6.66663 7.40141 6.77198 7.14706 6.95952 6.95952C7.14706 6.77198 7.40141 6.66663 7.66663 6.66663ZM24.6666 17.6666H21.2506C20.8615 18.5588 20.2206 19.318 19.4063 19.8512C18.5921 20.3844 17.6399 20.6684 16.6666 20.6684C15.6933 20.6684 14.7412 20.3844 13.9269 19.8512C13.1127 19.318 12.4717 18.5588 12.0826 17.6666H8.66663V22.6666H24.6666V17.6666ZM24.6666 15.6666V8.66663H8.66663V15.6666H13.6666C13.6666 16.4623 13.9827 17.2253 14.5453 17.7879C15.1079 18.3506 15.871 18.6666 16.6666 18.6666C17.4623 18.6666 18.2253 18.3506 18.7879 17.7879C19.3506 17.2253 19.6666 16.4623 19.6666 15.6666H24.6666Z" fill="#9AA7C1"/>
</svg>
