<svg width="14" height="17" viewBox="0 0 14 17" fill="none" xmlns="http://www.w3.org/2000/svg">
<path d="M11.523 11.5229L6.75 16.2959L1.977 11.5229C1.03301 10.5789 0.39014 9.3762 0.129696 8.06683C-0.130747 6.75746 0.00293013 5.40026 0.513824 4.16687C1.02472 2.93347 1.88988 1.87927 2.99991 1.13757C4.10994 0.395878 5.41498 0 6.75 0C8.08502 0 9.39006 0.395878 10.5001 1.13757C11.6101 1.87927 12.4753 2.93347 12.9862 4.16687C13.4971 5.40026 13.6308 6.75746 13.3703 8.06683C13.1099 9.3762 12.467 10.5789 11.523 11.5229ZM6.75 9.74994C7.54565 9.74994 8.30871 9.43387 8.87132 8.87126C9.43393 8.30865 9.75 7.54559 9.75 6.74994C9.75 5.95429 9.43393 5.19123 8.87132 4.62862C8.30871 4.06601 7.54565 3.74994 6.75 3.74994C5.95435 3.74994 5.19129 4.06601 4.62868 4.62862C4.06607 5.19123 3.75 5.95429 3.75 6.74994C3.75 7.54559 4.06607 8.30865 4.62868 8.87126C5.19129 9.43387 5.95435 9.74994 6.75 9.74994ZM6.75 8.24994C6.35218 8.24994 5.97065 8.09191 5.68934 7.8106C5.40804 7.5293 5.25 7.14777 5.25 6.74994C5.25 6.35212 5.40804 5.97059 5.68934 5.68928C5.97065 5.40798 6.35218 5.24994 6.75 5.24994C7.14783 5.24994 7.52936 5.40798 7.81066 5.68928C8.09197 5.97059 8.25 6.35212 8.25 6.74994C8.25 7.14777 8.09197 7.5293 7.81066 7.8106C7.52936 8.09191 7.14783 8.24994 6.75 8.24994Z" fill="#9AA7C1"/>
</svg>
