<svg width="32" height="32" viewBox="0 0 32 32" fill="none" xmlns="http://www.w3.org/2000/svg">
<path d="M10.9166 6.66663C11.4747 6.66663 12.0274 6.77656 12.543 6.99014C13.0587 7.20372 13.5272 7.51677 13.9218 7.91142C14.3165 8.30607 14.6295 8.77459 14.8431 9.29022C15.0567 9.80586 15.1666 10.3585 15.1666 10.9166V15.1666H10.9166C9.78946 15.1666 8.70845 14.7189 7.91142 13.9218C7.11439 13.1248 6.66663 12.0438 6.66663 10.9166C6.66663 9.78946 7.11439 8.70845 7.91142 7.91142C8.70845 7.11439 9.78946 6.66663 10.9166 6.66663ZM13.1666 13.1666V10.9166C13.1666 10.4716 13.0347 10.0366 12.7874 9.66659C12.5402 9.29658 12.1888 9.00819 11.7777 8.8379C11.3665 8.6676 10.9141 8.62304 10.4777 8.70986C10.0412 8.79668 9.64031 9.01097 9.32564 9.32564C9.01097 9.6403 8.79668 10.0412 8.70986 10.4777C8.62304 10.9141 8.6676 11.3665 8.8379 11.7777C9.0082 12.1888 9.29658 12.5402 9.6666 12.7874C10.0366 13.0347 10.4716 13.1666 10.9166 13.1666H13.1666ZM10.9166 17.1666H15.1666V21.4166C15.1666 22.2572 14.9174 23.0789 14.4504 23.7778C13.9834 24.4767 13.3196 25.0214 12.543 25.3431C11.7664 25.6648 10.9119 25.749 10.0875 25.585C9.26307 25.421 8.5058 25.0162 7.91142 24.4218C7.31705 23.8275 6.91228 23.0702 6.74829 22.2458C6.5843 21.4213 6.66847 20.5668 6.99014 19.7902C7.31181 19.0136 7.85655 18.3499 8.55545 17.8829C9.25436 17.4159 10.0761 17.1666 10.9166 17.1666ZM10.9166 19.1666C10.4716 19.1666 10.0366 19.2986 9.6666 19.5458C9.29658 19.7931 9.0082 20.1445 8.8379 20.5556C8.6676 20.9667 8.62304 21.4191 8.70986 21.8556C8.79668 22.292 9.01097 22.6929 9.32564 23.0076C9.64031 23.3223 10.0412 23.5366 10.4777 23.6234C10.9141 23.7102 11.3665 23.6657 11.7777 23.4954C12.1888 23.3251 12.5402 23.0367 12.7874 22.6667C13.0347 22.2966 13.1666 21.8616 13.1666 21.4166V19.1666H10.9166ZM21.4166 6.66663C22.5438 6.66663 23.6248 7.11439 24.4218 7.91142C25.2189 8.70845 25.6666 9.78946 25.6666 10.9166C25.6666 12.0438 25.2189 13.1248 24.4218 13.9218C23.6248 14.7189 22.5438 15.1666 21.4166 15.1666H17.1666V10.9166C17.1666 9.78946 17.6144 8.70845 18.4114 7.91142C19.2085 7.11439 20.2895 6.66663 21.4166 6.66663ZM21.4166 13.1666C21.8616 13.1666 22.2967 13.0347 22.6667 12.7874C23.0367 12.5402 23.3251 12.1888 23.4954 11.7777C23.6657 11.3665 23.7102 10.9141 23.6234 10.4777C23.5366 10.0412 23.3223 9.6403 23.0076 9.32564C22.693 9.01097 22.292 8.79668 21.8556 8.70986C21.4191 8.62304 20.9667 8.6676 20.5556 8.8379C20.1445 9.00819 19.7931 9.29658 19.5458 9.66659C19.2986 10.0366 19.1666 10.4716 19.1666 10.9166V13.1666H21.4166ZM17.1666 17.1666H21.4166C22.2572 17.1666 23.0789 17.4159 23.7778 17.8829C24.4767 18.3499 25.0214 19.0136 25.3431 19.7902C25.6648 20.5668 25.749 21.4213 25.585 22.2458C25.421 23.0702 25.0162 23.8275 24.4218 24.4218C23.8275 25.0162 23.0702 25.421 22.2458 25.585C21.4213 25.749 20.5668 25.6648 19.7902 25.3431C19.0136 25.0214 18.3499 24.4767 17.8829 23.7778C17.4159 23.0789 17.1666 22.2572 17.1666 21.4166V17.1666ZM19.1666 19.1666V21.4166C19.1666 21.8616 19.2986 22.2966 19.5458 22.6667C19.7931 23.0367 20.1445 23.3251 20.5556 23.4954C20.9667 23.6657 21.4191 23.7102 21.8556 23.6234C22.292 23.5366 22.693 23.3223 23.0076 23.0076C23.3223 22.6929 23.5366 22.292 23.6234 21.8556C23.7102 21.4191 23.6657 20.9667 23.4954 20.5556C23.3251 20.1445 23.0367 19.7931 22.6667 19.5458C22.2967 19.2986 21.8616 19.1666 21.4166 19.1666H19.1666Z" fill="#9AA7C1"/>
</svg>
