<svg width="32" height="32" viewBox="0 0 32 32" fill="none" xmlns="http://www.w3.org/2000/svg">
<path d="M25 25H7C6.73478 25 6.48043 24.8946 6.29289 24.7071C6.10536 24.5196 6 24.2652 6 24V16.487C5.99998 16.3441 6.03059 16.2029 6.08976 16.0728C6.14892 15.9428 6.23528 15.8269 6.343 15.733L10 12.544V8C10 7.73478 10.1054 7.48043 10.2929 7.29289C10.4804 7.10536 10.7348 7 11 7H25C25.2652 7 25.5196 7.10536 25.7071 7.29289C25.8946 7.48043 26 7.73478 26 8V24C26 24.2652 25.8946 24.5196 25.7071 24.7071C25.5196 24.8946 25.2652 25 25 25ZM13 23H16V16.942L12 13.454L8 16.942V23H11V19H13V23ZM18 23H24V9H12V11.127C12.234 11.127 12.469 11.209 12.657 11.374L17.657 15.733C17.7647 15.8269 17.8511 15.9428 17.9102 16.0728C17.9694 16.2029 18 16.3441 18 16.487V23ZM20 15H22V17H20V15ZM20 19H22V21H20V19ZM20 11H22V13H20V11ZM16 11H18V13H16V11Z" fill="#9AA7C1"/>
</svg>
