<svg width="24" height="24" viewBox="0 0 24 24" fill="none" xmlns="http://www.w3.org/2000/svg">
<path d="M11.2132 5.95225L7.79594 9.36951C7.12016 10.0454 6.65996 10.9064 6.47353 11.8438C6.28711 12.7812 6.38284 13.7529 6.74861 14.6359C7.11439 15.5188 7.73378 16.2736 8.52847 16.8045C9.32316 17.3355 10.2574 17.6189 11.2132 17.6189C12.169 17.6189 13.1033 17.3355 13.8979 16.8045C14.6926 16.2736 15.312 15.5188 15.6778 14.6359C16.0436 13.7529 16.1393 12.7812 15.9529 11.8438C15.7665 10.9064 15.3063 10.0454 14.6305 9.36951L11.2132 5.95225ZM11.2132 3.99992L15.6066 8.39335C16.4756 9.26228 17.0673 10.3694 17.307 11.5746C17.5468 12.7799 17.4237 14.0291 16.9534 15.1644C16.4832 16.2997 15.6868 17.2701 14.6651 17.9528C13.6433 18.6355 12.4421 18.9999 11.2132 18.9999C9.98435 18.9999 8.7831 18.6355 7.76134 17.9528C6.73959 17.2701 5.94323 16.2997 5.47296 15.1644C5.0027 14.0291 4.87965 12.7799 5.11938 11.5746C5.35911 10.3694 5.95086 9.26228 6.81978 8.39335L11.2132 3.99992Z" fill="#9AA7C1"/>
</svg>
