<svg width="24" height="24" viewBox="0 0 24 24" fill="none" xmlns="http://www.w3.org/2000/svg">
<path d="M11.5 10.75C12.4946 10.75 13.4484 11.1451 14.1517 11.8483C14.8549 12.5516 15.25 13.5054 15.25 14.5V19H13.75V14.5C13.75 13.9261 13.5308 13.3739 13.137 12.9563C12.7433 12.5387 12.2049 12.2874 11.632 12.2537L11.5 12.25C10.9261 12.25 10.3739 12.4692 9.9563 12.863C9.53874 13.2567 9.28742 13.7951 9.25375 14.368L9.25 14.5V19H7.75V14.5C7.75 13.5054 8.14509 12.5516 8.84835 11.8483C9.55161 11.1451 10.5054 10.75 11.5 10.75ZM6.625 13C6.83425 13 7.0375 13.0247 7.2325 13.0705C7.10427 13.4523 7.02833 13.8496 7.00675 14.2517L7 14.5V14.5645C6.91379 14.5337 6.82412 14.5135 6.733 14.5045L6.625 14.5C6.34534 14.5 6.07571 14.6042 5.86869 14.7922C5.66166 14.9802 5.5321 15.2386 5.50525 15.517L5.5 15.625V19H4V15.625C4 14.9288 4.27656 14.2611 4.76884 13.7688C5.26113 13.2766 5.92881 13 6.625 13ZM16.375 13C17.0712 13 17.7389 13.2766 18.2312 13.7688C18.7234 14.2611 19 14.9288 19 15.625V19H17.5V15.625C17.5 15.3453 17.3958 15.0757 17.2078 14.8687C17.0198 14.6617 16.7614 14.5321 16.483 14.5052L16.375 14.5C16.2437 14.5 16.1178 14.5225 16 14.5637V14.5C16 14.0005 15.919 13.5205 15.7682 13.072C15.9625 13.0247 16.1657 13 16.375 13ZM6.625 8.5C7.12228 8.5 7.59919 8.69754 7.95083 9.04917C8.30246 9.40081 8.5 9.87772 8.5 10.375C8.5 10.8723 8.30246 11.3492 7.95083 11.7008C7.59919 12.0525 7.12228 12.25 6.625 12.25C6.12772 12.25 5.65081 12.0525 5.29917 11.7008C4.94754 11.3492 4.75 10.8723 4.75 10.375C4.75 9.87772 4.94754 9.40081 5.29917 9.04917C5.65081 8.69754 6.12772 8.5 6.625 8.5ZM16.375 8.5C16.8723 8.5 17.3492 8.69754 17.7008 9.04917C18.0525 9.40081 18.25 9.87772 18.25 10.375C18.25 10.8723 18.0525 11.3492 17.7008 11.7008C17.3492 12.0525 16.8723 12.25 16.375 12.25C15.8777 12.25 15.4008 12.0525 15.0492 11.7008C14.6975 11.3492 14.5 10.8723 14.5 10.375C14.5 9.87772 14.6975 9.40081 15.0492 9.04917C15.4008 8.69754 15.8777 8.5 16.375 8.5ZM6.625 10C6.52554 10 6.43016 10.0395 6.35984 10.1098C6.28951 10.1802 6.25 10.2755 6.25 10.375C6.25 10.4745 6.28951 10.5698 6.35984 10.6402C6.43016 10.7105 6.52554 10.75 6.625 10.75C6.72446 10.75 6.81984 10.7105 6.89016 10.6402C6.96049 10.5698 7 10.4745 7 10.375C7 10.2755 6.96049 10.1802 6.89016 10.1098C6.81984 10.0395 6.72446 10 6.625 10ZM16.375 10C16.2755 10 16.1802 10.0395 16.1098 10.1098C16.0395 10.1802 16 10.2755 16 10.375C16 10.4745 16.0395 10.5698 16.1098 10.6402C16.1802 10.7105 16.2755 10.75 16.375 10.75C16.4745 10.75 16.5698 10.7105 16.6402 10.6402C16.7105 10.5698 16.75 10.4745 16.75 10.375C16.75 10.2755 16.7105 10.1802 16.6402 10.1098C16.5698 10.0395 16.4745 10 16.375 10ZM11.5 4C12.2956 4 13.0587 4.31607 13.6213 4.87868C14.1839 5.44129 14.5 6.20435 14.5 7C14.5 7.79565 14.1839 8.55871 13.6213 9.12132C13.0587 9.68393 12.2956 10 11.5 10C10.7044 10 9.94129 9.68393 9.37868 9.12132C8.81607 8.55871 8.5 7.79565 8.5 7C8.5 6.20435 8.81607 5.44129 9.37868 4.87868C9.94129 4.31607 10.7044 4 11.5 4ZM11.5 5.5C11.1022 5.5 10.7206 5.65804 10.4393 5.93934C10.158 6.22064 10 6.60218 10 7C10 7.39782 10.158 7.77936 10.4393 8.06066C10.7206 8.34196 11.1022 8.5 11.5 8.5C11.8978 8.5 12.2794 8.34196 12.5607 8.06066C12.842 7.77936 13 7.39782 13 7C13 6.60218 12.842 6.22064 12.5607 5.93934C12.2794 5.65804 11.8978 5.5 11.5 5.5Z" fill="#9AA7C1"/>
</svg>
