<svg width="24" height="24" viewBox="0 0 24 24" fill="none" xmlns="http://www.w3.org/2000/svg">
<path d="M3.99994 7.99776C6.39926 6.054 9.39457 4.99545 12.4824 5.00001C15.6962 5.00001 18.6474 6.12276 20.9649 7.99776L20.0229 9.16476C17.8901 7.43682 15.2274 6.49584 12.4824 6.50001C9.62569 6.50001 7.00294 7.49751 4.94194 9.16476L3.99994 7.99776ZM6.35569 10.9153C8.08864 9.51126 10.2521 8.74667 12.4824 8.75001C14.8029 8.75001 16.9344 9.56076 18.6092 10.9145L17.6664 12.0815C16.2001 10.8938 14.3695 10.247 12.4824 10.25C10.5189 10.25 8.71519 10.9363 7.29844 12.0815L6.35569 10.9145V10.9153ZM8.71219 13.8328C9.77857 12.9687 11.1099 12.4981 12.4824 12.5C13.9104 12.5 15.2222 12.9988 16.2527 13.832L15.3099 14.999C14.5101 14.3512 13.5117 13.9984 12.4824 14C11.4114 14 10.4274 14.3743 9.65494 14.999L8.71219 13.832V13.8328ZM11.0687 16.7503C11.4685 16.4261 11.9677 16.2494 12.4824 16.25C13.0179 16.25 13.5099 16.4375 13.8962 16.7495L12.4824 18.5L11.0687 16.7495V16.7503Z" fill="#9AA7C1"/>
</svg>
